<?xml version="1.0" encoding="UTF-8" standalone="no"?>
<!DOCTYPE svg PUBLIC "-//W3C//DTD SVG 1.1//EN"
 "http://www.w3.org/Graphics/SVG/1.1/DTD/svg11.dtd">
<!-- Generated by graphviz version 2.40.1 (20161225.0304)
 -->
<!-- Title: mod_random_number_generator::boxmuller Pages: 1 -->
<svg width="507pt" height="86pt"
 viewBox="0.00 0.00 507.00 86.00" xmlns="http://www.w3.org/2000/svg" xmlns:xlink="http://www.w3.org/1999/xlink">
<g id="graph0" class="graph" transform="scale(1 1) rotate(0) translate(4 82)">
<title>mod_random_number_generator::boxmuller</title>
<!-- Node1 -->
<g id="Node000001" class="node">
<title>Node1</title>
<g id="a_Node000001"><a xlink:title="Implementation of the Box&#45;muller algorithm to genrate Gaussian random variables.">
<polygon fill="#999999" stroke="#666666" points="499,-54 343,-54 343,-24 499,-24 499,-54"/>
<text text-anchor="start" x="351" y="-42" font-family="Helvetica,sans-Serif" font-size="10.00" fill="#000000">mod_random_number_generator</text>
<text text-anchor="middle" x="421" y="-31" font-family="Helvetica,sans-Serif" font-size="10.00" fill="#000000">::boxmuller</text>
</a>
</g>
</g>
<!-- Node1&#45;&gt;Node1 -->
<g id="edge1_Node000001_Node000001" class="edge">
<title>Node1&#45;&gt;Node1</title>
<g id="a_edge1_Node000001_Node000001"><a xlink:title=" ">
<path fill="none" stroke="#63b8ff" d="M454.6072,-64.5975C450.0149,-68.9704 438.8125,-72 421,-72 391,-72 379.75,-63.4063 387.25,-54.2754"/>
<polygon fill="#63b8ff" stroke="#63b8ff" points="458.1112,-64.3229 454.75,-54.2754 451.1119,-64.226 458.1112,-64.3229"/>
</a>
</g>
</g>
<!-- Node2 -->
<g id="Node000002" class="node">
<title>Node2</title>
<g id="a_Node000002"><a xlink:href="../../d8/dd5/namespacemod__milstein__solver.html#a638c4ea649a63896183e1176171e6419" target="_top" xlink:title="Simulate an increment of the related Browninar path.">
<polygon fill="#ffffff" stroke="#666666" points="293,-78 165,-78 165,-48 293,-48 293,-78"/>
<text text-anchor="start" x="173" y="-66" font-family="Helvetica,sans-Serif" font-size="10.00" fill="#000000">mod_milstein_solver</text>
<text text-anchor="middle" x="229" y="-55" font-family="Helvetica,sans-Serif" font-size="10.00" fill="#000000">::get_brownian_increment</text>
</a>
</g>
</g>
<!-- Node1&#45;&gt;Node2 -->
<g id="edge2_Node000001_Node000002" class="edge">
<title>Node1&#45;&gt;Node2</title>
<g id="a_edge2_Node000001_Node000002"><a xlink:title=" ">
<path fill="none" stroke="#63b8ff" d="M332.7735,-50.0283C319.4493,-51.6938 305.9241,-53.3845 293.2335,-54.9708"/>
<polygon fill="#63b8ff" stroke="#63b8ff" points="333.4176,-53.4751 342.9063,-48.7617 332.5493,-46.5292 333.4176,-53.4751"/>
</a>
</g>
</g>
<!-- Node4 -->
<g id="Node000004" class="node">
<title>Node4</title>
<g id="a_Node000004"><a xlink:href="../../d1/dcc/namespacemod__random__number__generator.html#a037fe0c339383563b18e1a2314fe9710" target="_top" xlink:title="Returns a number with Gaussian distribution using the Box&#45;Muller algortihm.">
<polygon fill="#ffffff" stroke="#666666" points="307,-30 151,-30 151,0 307,0 307,-30"/>
<text text-anchor="start" x="159" y="-18" font-family="Helvetica,sans-Serif" font-size="10.00" fill="#000000">mod_random_number_generator</text>
<text text-anchor="middle" x="229" y="-7" font-family="Helvetica,sans-Serif" font-size="10.00" fill="#000000">::normalvar</text>
</a>
</g>
</g>
<!-- Node1&#45;&gt;Node4 -->
<g id="edge4_Node000001_Node000004" class="edge">
<title>Node1&#45;&gt;Node4</title>
<g id="a_edge4_Node000001_Node000004"><a xlink:title=" ">
<path fill="none" stroke="#63b8ff" d="M332.8474,-27.9809C324.2313,-26.9039 315.5303,-25.8163 307.0245,-24.7531"/>
<polygon fill="#63b8ff" stroke="#63b8ff" points="332.5493,-31.4708 342.9063,-29.2383 333.4176,-24.5249 332.5493,-31.4708"/>
</a>
</g>
</g>
<!-- Node3 -->
<g id="Node000003" class="node">
<title>Node3</title>
<g id="a_Node000003"><a xlink:href="../../d8/dd5/namespacemod__milstein__solver.html#a283e49b9c27d2db70dea7adcd22f2d80" target="_top" xlink:title="Computes a iteration of the Milstein method.">
<polygon fill="#ffffff" stroke="#666666" points="115,-78 0,-78 0,-48 115,-48 115,-78"/>
<text text-anchor="start" x="8" y="-66" font-family="Helvetica,sans-Serif" font-size="10.00" fill="#000000">mod_milstein_solver</text>
<text text-anchor="middle" x="57.5" y="-55" font-family="Helvetica,sans-Serif" font-size="10.00" fill="#000000">::get_milstein_iteration</text>
</a>
</g>
</g>
<!-- Node2&#45;&gt;Node3 -->
<g id="edge3_Node000002_Node000003" class="edge">
<title>Node2&#45;&gt;Node3</title>
<g id="a_edge3_Node000002_Node000003"><a xlink:title=" ">
<path fill="none" stroke="#63b8ff" d="M154.6333,-63C141.4107,-63 127.8204,-63 115.1503,-63"/>
<polygon fill="#63b8ff" stroke="#63b8ff" points="154.6518,-66.5001 164.6518,-63 154.6518,-59.5001 154.6518,-66.5001"/>
</a>
</g>
</g>
</g>
</svg>
