<?xml version="1.0" encoding="UTF-8" standalone="no"?>
<!DOCTYPE svg PUBLIC "-//W3C//DTD SVG 1.1//EN"
 "http://www.w3.org/Graphics/SVG/1.1/DTD/svg11.dtd">
<!-- Generated by graphviz version 2.40.1 (20161225.0304)
 -->
<!-- Title: mod_random_number_generator::normalvar Pages: 1 -->
<svg width="548pt" height="56pt"
 viewBox="0.00 0.00 548.00 56.00" xmlns="http://www.w3.org/2000/svg" xmlns:xlink="http://www.w3.org/1999/xlink">
<g id="graph0" class="graph" transform="scale(1 1) rotate(0) translate(4 52)">
<title>mod_random_number_generator::normalvar</title>
<!-- Node1 -->
<g id="Node000001" class="node">
<title>Node1</title>
<g id="a_Node000001"><a xlink:title="Returns a number with Gaussian distribution using the Box&#45;Muller algortihm.">
<polygon fill="#999999" stroke="#666666" points="156,-30 0,-30 0,0 156,0 156,-30"/>
<text text-anchor="start" x="8" y="-18" font-family="Helvetica,sans-Serif" font-size="10.00" fill="#000000">mod_random_number_generator</text>
<text text-anchor="middle" x="78" y="-7" font-family="Helvetica,sans-Serif" font-size="10.00" fill="#000000">::normalvar</text>
</a>
</g>
</g>
<!-- Node2 -->
<g id="Node000002" class="node">
<title>Node2</title>
<g id="a_Node000002"><a xlink:href="../../d1/dcc/namespacemod__random__number__generator.html#ab1f623a692b4cd170b49039e246afd57" target="_top" xlink:title="Implementation of the Box&#45;muller algorithm to genrate Gaussian random variables.">
<polygon fill="#ffffff" stroke="#666666" points="348,-30 192,-30 192,0 348,0 348,-30"/>
<text text-anchor="start" x="200" y="-18" font-family="Helvetica,sans-Serif" font-size="10.00" fill="#000000">mod_random_number_generator</text>
<text text-anchor="middle" x="270" y="-7" font-family="Helvetica,sans-Serif" font-size="10.00" fill="#000000">::boxmuller</text>
</a>
</g>
</g>
<!-- Node1&#45;&gt;Node2 -->
<g id="edge1_Node000001_Node000002" class="edge">
<title>Node1&#45;&gt;Node2</title>
<g id="a_edge1_Node000001_Node000002"><a xlink:title=" ">
<path fill="none" stroke="#63b8ff" d="M156.0938,-15C164.6006,-15 173.3019,-15 181.9175,-15"/>
<polygon fill="#63b8ff" stroke="#63b8ff" points="181.9755,-18.5001 191.9755,-15 181.9754,-11.5001 181.9755,-18.5001"/>
</a>
</g>
</g>
<!-- Node2&#45;&gt;Node2 -->
<g id="edge2_Node000002_Node000002" class="edge">
<title>Node2&#45;&gt;Node2</title>
<g id="a_edge2_Node000002_Node000002"><a xlink:title=" ">
<path fill="none" stroke="#63b8ff" d="M236.25,-30.2754C228.75,-39.4063 240,-48 270,-48 287.8125,-48 299.0149,-44.9704 303.6072,-40.5975"/>
<polygon fill="#63b8ff" stroke="#63b8ff" points="307.1112,-40.3229 303.75,-30.2754 300.1119,-40.226 307.1112,-40.3229"/>
</a>
</g>
</g>
<!-- Node3 -->
<g id="Node000003" class="node">
<title>Node3</title>
<g id="a_Node000003"><a xlink:href="../../d1/dcc/namespacemod__random__number__generator.html#a7190dd0789517074d019626c692cfcc5" target="_top" xlink:title="Returns a random variables with uniform distribution using the standar gfortran random number generat...">
<polygon fill="#ffffff" stroke="#666666" points="540,-30 384,-30 384,0 540,0 540,-30"/>
<text text-anchor="start" x="392" y="-18" font-family="Helvetica,sans-Serif" font-size="10.00" fill="#000000">mod_random_number_generator</text>
<text text-anchor="middle" x="462" y="-7" font-family="Helvetica,sans-Serif" font-size="10.00" fill="#000000">::unif</text>
</a>
</g>
</g>
<!-- Node2&#45;&gt;Node3 -->
<g id="edge3_Node000002_Node000003" class="edge">
<title>Node2&#45;&gt;Node3</title>
<g id="a_edge3_Node000002_Node000003"><a xlink:title=" ">
<path fill="none" stroke="#63b8ff" d="M348.0938,-15C356.6006,-15 365.3019,-15 373.9175,-15"/>
<polygon fill="#63b8ff" stroke="#63b8ff" points="373.9755,-18.5001 383.9755,-15 373.9754,-11.5001 373.9755,-18.5001"/>
</a>
</g>
</g>
</g>
</svg>
