<?xml version="1.0" encoding="UTF-8" standalone="no"?>
<!DOCTYPE svg PUBLIC "-//W3C//DTD SVG 1.1//EN"
 "http://www.w3.org/Graphics/SVG/1.1/DTD/svg11.dtd">
<!-- Generated by graphviz version 2.43.0 (0)
 -->
<!-- Title: mod_random_number_generator::mkl_gaussian_sampler Pages: 1 -->
<svg width="536pt" height="39pt"
 viewBox="0.00 0.00 536.00 39.00" xmlns="http://www.w3.org/2000/svg" xmlns:xlink="http://www.w3.org/1999/xlink">
<g id="graph0" class="graph" transform="scale(1 1) rotate(0) translate(4 35)">
<title>mod_random_number_generator::mkl_gaussian_sampler</title>
<polygon fill="white" stroke="transparent" points="-4,4 -4,-35 532,-35 532,4 -4,4"/>
<!-- Node1 -->
<g id="node1" class="node">
<title>Node1</title>
<g id="a_node1"><a xlink:title=" ">
<polygon fill="#bfbfbf" stroke="black" points="352,-0.5 352,-30.5 528,-30.5 528,-0.5 352,-0.5"/>
<text text-anchor="start" x="360" y="-18.5" font-family="Helvetica,sans-Serif" font-size="10.00">mod_random_number_generator</text>
<text text-anchor="middle" x="440" y="-7.5" font-family="Helvetica,sans-Serif" font-size="10.00">::mkl_gaussian_sampler</text>
</a>
</g>
</g>
<!-- Node2 -->
<g id="node2" class="node">
<title>Node2</title>
<g id="a_node2"><a xlink:href="../../df/d89/namespacemod__brownian__motion.html#a616a49ecd828daabdd89057f70c6b9a8" target="_top" xlink:title="Returns a realization of a standard Brownian motion given a homogenoun stenci with L operational poin...">
<polygon fill="white" stroke="black" points="188,-0.5 188,-30.5 316,-30.5 316,-0.5 188,-0.5"/>
<text text-anchor="start" x="196" y="-18.5" font-family="Helvetica,sans-Serif" font-size="10.00">mod_brownian_motion</text>
<text text-anchor="middle" x="252" y="-7.5" font-family="Helvetica,sans-Serif" font-size="10.00">::get_brownian_path</text>
</a>
</g>
</g>
<!-- Node1&#45;&gt;Node2 -->
<g id="edge1" class="edge">
<title>Node1&#45;&gt;Node2</title>
<path fill="none" stroke="midnightblue" d="M341.77,-15.5C333.06,-15.5 324.4,-15.5 316.1,-15.5"/>
<polygon fill="midnightblue" stroke="midnightblue" points="341.99,-19 351.99,-15.5 341.99,-12 341.99,-19"/>
</g>
<!-- Node3 -->
<g id="node3" class="node">
<title>Node3</title>
<g id="a_node3"><a xlink:href="../../dd/d02/mod__brownian__motion__test__dev_8f90.html#addaed6963c3c8b461b2562cf676976b4" target="_top" xlink:title=" ">
<polygon fill="white" stroke="black" points="0,-6 0,-25 152,-25 152,-6 0,-6"/>
<text text-anchor="middle" x="76" y="-13" font-family="Helvetica,sans-Serif" font-size="10.00">mod_brownian_motion_test</text>
</a>
</g>
</g>
<!-- Node2&#45;&gt;Node3 -->
<g id="edge2" class="edge">
<title>Node2&#45;&gt;Node3</title>
<path fill="none" stroke="midnightblue" d="M177.53,-15.5C169.12,-15.5 160.53,-15.5 152.09,-15.5"/>
<polygon fill="midnightblue" stroke="midnightblue" points="177.69,-19 187.69,-15.5 177.69,-12 177.69,-19"/>
</g>
</g>
</svg>
