<?xml version="1.0" encoding="UTF-8" standalone="no"?>
<!DOCTYPE svg PUBLIC "-//W3C//DTD SVG 1.1//EN"
 "http://www.w3.org/Graphics/SVG/1.1/DTD/svg11.dtd">
<!-- Generated by graphviz version 2.43.0 (0)
 -->
<!-- Title: mod_random_number_generator::normalvar Pages: 1 -->
<svg width="396pt" height="57pt"
 viewBox="0.00 0.00 396.00 57.00" xmlns="http://www.w3.org/2000/svg" xmlns:xlink="http://www.w3.org/1999/xlink">
<g id="graph0" class="graph" transform="scale(1 1) rotate(0) translate(4 53)">
<title>mod_random_number_generator::normalvar</title>
<polygon fill="white" stroke="transparent" points="-4,4 -4,-53 392,-53 392,4 -4,4"/>
<!-- Node1 -->
<g id="node1" class="node">
<title>Node1</title>
<g id="a_node1"><a xlink:title="Returns a number with Gaussian distribution using the Box&#45;Muller algortihm.">
<polygon fill="#bfbfbf" stroke="black" points="0,-0.5 0,-30.5 176,-30.5 176,-0.5 0,-0.5"/>
<text text-anchor="start" x="8" y="-18.5" font-family="Helvetica,sans-Serif" font-size="10.00">mod_random_number_generator</text>
<text text-anchor="middle" x="88" y="-7.5" font-family="Helvetica,sans-Serif" font-size="10.00">::normalvar</text>
</a>
</g>
</g>
<!-- Node2 -->
<g id="node2" class="node">
<title>Node2</title>
<g id="a_node2"><a xlink:href="../../d1/dcc/namespacemod__random__number__generator.html#aa3bb4b1a0f7f2d8f6ac1d2b6518f59d6" target="_top" xlink:title="Implementation of the Box&#45;muller algorithm to genrate Gaussian random variables.">
<polygon fill="white" stroke="black" points="212,-0.5 212,-30.5 388,-30.5 388,-0.5 212,-0.5"/>
<text text-anchor="start" x="220" y="-18.5" font-family="Helvetica,sans-Serif" font-size="10.00">mod_random_number_generator</text>
<text text-anchor="middle" x="300" y="-7.5" font-family="Helvetica,sans-Serif" font-size="10.00">::boxmuller</text>
</a>
</g>
</g>
<!-- Node1&#45;&gt;Node2 -->
<g id="edge1" class="edge">
<title>Node1&#45;&gt;Node2</title>
<path fill="none" stroke="midnightblue" d="M176.23,-15.5C184.57,-15.5 193.05,-15.5 201.47,-15.5"/>
<polygon fill="midnightblue" stroke="midnightblue" points="201.7,-19 211.7,-15.5 201.7,-12 201.7,-19"/>
</g>
<!-- Node2&#45;&gt;Node2 -->
<g id="edge2" class="edge">
<title>Node2&#45;&gt;Node2</title>
<path fill="none" stroke="midnightblue" d="M263.4,-30.66C254.58,-40.06 266.78,-49 300,-49 320.25,-49 332.68,-45.68 337.31,-40.96"/>
<polygon fill="midnightblue" stroke="midnightblue" points="340.78,-40.39 336.6,-30.66 333.8,-40.88 340.78,-40.39"/>
</g>
</g>
</svg>
