<?xml version="1.0" encoding="UTF-8" standalone="no"?>
<!DOCTYPE svg PUBLIC "-//W3C//DTD SVG 1.1//EN"
 "http://www.w3.org/Graphics/SVG/1.1/DTD/svg11.dtd">
<!-- Generated by graphviz version 2.43.0 (0)
 -->
<!-- Title: mod_random_number_generator::boxmuller Pages: 1 -->
<svg width="562pt" height="88pt"
 viewBox="0.00 0.00 562.00 88.00" xmlns="http://www.w3.org/2000/svg" xmlns:xlink="http://www.w3.org/1999/xlink">
<g id="graph0" class="graph" transform="scale(1 1) rotate(0) translate(4 84)">
<title>mod_random_number_generator::boxmuller</title>
<polygon fill="white" stroke="transparent" points="-4,4 -4,-84 558,-84 558,4 -4,4"/>
<!-- Node1 -->
<g id="node1" class="node">
<title>Node1</title>
<g id="a_node1"><a xlink:title="Implementation of the Box&#45;muller algorithm to genrate Gaussian random variables.">
<polygon fill="#bfbfbf" stroke="black" points="378,-24.5 378,-54.5 554,-54.5 554,-24.5 378,-24.5"/>
<text text-anchor="start" x="386" y="-42.5" font-family="Helvetica,sans-Serif" font-size="10.00">mod_random_number_generator</text>
<text text-anchor="middle" x="466" y="-31.5" font-family="Helvetica,sans-Serif" font-size="10.00">::boxmuller</text>
</a>
</g>
</g>
<!-- Node1&#45;&gt;Node1 -->
<g id="edge1" class="edge">
<title>Node1&#45;&gt;Node1</title>
<path fill="none" stroke="midnightblue" d="M503.67,-64.96C498.99,-69.68 486.44,-73 466,-73 432.46,-73 420.15,-64.06 429.05,-54.66"/>
<polygon fill="midnightblue" stroke="midnightblue" points="507.14,-64.39 502.95,-54.66 500.16,-64.88 507.14,-64.39"/>
</g>
<!-- Node2 -->
<g id="node2" class="node">
<title>Node2</title>
<g id="a_node2"><a xlink:href="../../d8/dd5/namespacemod__milstein__solver.html#a16bfa06b499d32cad645bfc8b3be1734" target="_top" xlink:title="Simulate an increment of the related Browninar path.">
<polygon fill="white" stroke="black" points="182.5,-49.5 182.5,-79.5 325.5,-79.5 325.5,-49.5 182.5,-49.5"/>
<text text-anchor="start" x="190.5" y="-67.5" font-family="Helvetica,sans-Serif" font-size="10.00">mod_milstein_solver</text>
<text text-anchor="middle" x="254" y="-56.5" font-family="Helvetica,sans-Serif" font-size="10.00">::get_brownian_increment</text>
</a>
</g>
</g>
<!-- Node1&#45;&gt;Node2 -->
<g id="edge2" class="edge">
<title>Node1&#45;&gt;Node2</title>
<path fill="none" stroke="midnightblue" d="M367.54,-51.1C353.42,-52.78 339.13,-54.49 325.67,-56.09"/>
<polygon fill="midnightblue" stroke="midnightblue" points="368.25,-54.54 377.77,-49.89 367.42,-47.59 368.25,-54.54"/>
</g>
<!-- Node4 -->
<g id="node4" class="node">
<title>Node4</title>
<g id="a_node4"><a xlink:href="../../d1/dcc/namespacemod__random__number__generator.html#ab22d1a4cd14d9bdee67bd6d3d83ce9d4" target="_top" xlink:title="Returns a number with Gaussian distribution using the Box&#45;Muller algortihm.">
<polygon fill="white" stroke="black" points="166,-0.5 166,-30.5 342,-30.5 342,-0.5 166,-0.5"/>
<text text-anchor="start" x="174" y="-18.5" font-family="Helvetica,sans-Serif" font-size="10.00">mod_random_number_generator</text>
<text text-anchor="middle" x="254" y="-7.5" font-family="Helvetica,sans-Serif" font-size="10.00">::normalvar</text>
</a>
</g>
</g>
<!-- Node1&#45;&gt;Node4 -->
<g id="edge4" class="edge">
<title>Node1&#45;&gt;Node4</title>
<path fill="none" stroke="midnightblue" d="M367.82,-28.39C359.31,-27.42 350.73,-26.44 342.3,-25.48"/>
<polygon fill="midnightblue" stroke="midnightblue" points="367.43,-31.87 377.77,-29.53 368.23,-24.92 367.43,-31.87"/>
</g>
<!-- Node3 -->
<g id="node3" class="node">
<title>Node3</title>
<g id="a_node3"><a xlink:href="../../d8/dd5/namespacemod__milstein__solver.html#a4526814c92a54d7b7685631a05b8357d" target="_top" xlink:title="Computes a iteration of the Milstein method.">
<polygon fill="white" stroke="black" points="0,-49.5 0,-79.5 130,-79.5 130,-49.5 0,-49.5"/>
<text text-anchor="start" x="8" y="-67.5" font-family="Helvetica,sans-Serif" font-size="10.00">mod_milstein_solver</text>
<text text-anchor="middle" x="65" y="-56.5" font-family="Helvetica,sans-Serif" font-size="10.00">::get_milstein_iteration</text>
</a>
</g>
</g>
<!-- Node2&#45;&gt;Node3 -->
<g id="edge3" class="edge">
<title>Node2&#45;&gt;Node3</title>
<path fill="none" stroke="midnightblue" d="M172.14,-64.5C158.06,-64.5 143.58,-64.5 130.03,-64.5"/>
<polygon fill="midnightblue" stroke="midnightblue" points="172.3,-68 182.3,-64.5 172.3,-61 172.3,-68"/>
</g>
</g>
</svg>
