<?xml version="1.0" encoding="UTF-8" standalone="no"?>
<!DOCTYPE svg PUBLIC "-//W3C//DTD SVG 1.1//EN"
 "http://www.w3.org/Graphics/SVG/1.1/DTD/svg11.dtd">
<!-- Generated by graphviz version 2.40.1 (20161225.0304)
 -->
<!-- Title: mod_milstein_solver::get_brownian_increment Pages: 1 -->
<svg width="520pt" height="56pt"
 viewBox="0.00 0.00 520.00 56.00" xmlns="http://www.w3.org/2000/svg" xmlns:xlink="http://www.w3.org/1999/xlink">
<g id="graph0" class="graph" transform="scale(1 1) rotate(0) translate(4 52)">
<title>mod_milstein_solver::get_brownian_increment</title>
<!-- Node1 -->
<g id="Node000001" class="node">
<title>Node1</title>
<g id="a_Node000001"><a xlink:title="Simulate an increment of the related Browninar path.">
<polygon fill="#999999" stroke="#666666" points="128,-30 0,-30 0,0 128,0 128,-30"/>
<text text-anchor="start" x="8" y="-18" font-family="Helvetica,sans-Serif" font-size="10.00" fill="#000000">mod_milstein_solver</text>
<text text-anchor="middle" x="64" y="-7" font-family="Helvetica,sans-Serif" font-size="10.00" fill="#000000">::get_brownian_increment</text>
</a>
</g>
</g>
<!-- Node2 -->
<g id="Node000002" class="node">
<title>Node2</title>
<g id="a_Node000002"><a xlink:href="../../d1/dcc/namespacemod__random__number__generator.html#ab1f623a692b4cd170b49039e246afd57" target="_top" xlink:title="Implementation of the Box&#45;muller algorithm to genrate Gaussian random variables.">
<polygon fill="#ffffff" stroke="#666666" points="320,-30 164,-30 164,0 320,0 320,-30"/>
<text text-anchor="start" x="172" y="-18" font-family="Helvetica,sans-Serif" font-size="10.00" fill="#000000">mod_random_number_generator</text>
<text text-anchor="middle" x="242" y="-7" font-family="Helvetica,sans-Serif" font-size="10.00" fill="#000000">::boxmuller</text>
</a>
</g>
</g>
<!-- Node1&#45;&gt;Node2 -->
<g id="edge1_Node000001_Node000002" class="edge">
<title>Node1&#45;&gt;Node2</title>
<g id="a_edge1_Node000001_Node000002"><a xlink:title=" ">
<path fill="none" stroke="#63b8ff" d="M128.0106,-15C136.3922,-15 145.0956,-15 153.7889,-15"/>
<polygon fill="#63b8ff" stroke="#63b8ff" points="153.9696,-18.5001 163.9696,-15 153.9696,-11.5001 153.9696,-18.5001"/>
</a>
</g>
</g>
<!-- Node2&#45;&gt;Node2 -->
<g id="edge2_Node000002_Node000002" class="edge">
<title>Node2&#45;&gt;Node2</title>
<g id="a_edge2_Node000002_Node000002"><a xlink:title=" ">
<path fill="none" stroke="#63b8ff" d="M210.7109,-30.2754C203.7578,-39.4063 214.1875,-48 242,-48 258.5137,-48 268.8992,-44.9704 273.1567,-40.5975"/>
<polygon fill="#63b8ff" stroke="#63b8ff" points="276.6604,-40.3195 273.2891,-30.2754 269.661,-40.2296 276.6604,-40.3195"/>
</a>
</g>
</g>
<!-- Node3 -->
<g id="Node000003" class="node">
<title>Node3</title>
<g id="a_Node000003"><a xlink:href="../../d1/dcc/namespacemod__random__number__generator.html#a7190dd0789517074d019626c692cfcc5" target="_top" xlink:title="Returns a random variables with uniform distribution using the standar gfortran random number generat...">
<polygon fill="#ffffff" stroke="#666666" points="512,-30 356,-30 356,0 512,0 512,-30"/>
<text text-anchor="start" x="364" y="-18" font-family="Helvetica,sans-Serif" font-size="10.00" fill="#000000">mod_random_number_generator</text>
<text text-anchor="middle" x="434" y="-7" font-family="Helvetica,sans-Serif" font-size="10.00" fill="#000000">::unif</text>
</a>
</g>
</g>
<!-- Node2&#45;&gt;Node3 -->
<g id="edge3_Node000002_Node000003" class="edge">
<title>Node2&#45;&gt;Node3</title>
<g id="a_edge3_Node000002_Node000003"><a xlink:title=" ">
<path fill="none" stroke="#63b8ff" d="M320.0938,-15C328.6006,-15 337.3019,-15 345.9175,-15"/>
<polygon fill="#63b8ff" stroke="#63b8ff" points="345.9755,-18.5001 355.9755,-15 345.9754,-11.5001 345.9755,-18.5001"/>
</a>
</g>
</g>
</g>
</svg>
