<?xml version="1.0" encoding="UTF-8" standalone="no"?>
<!DOCTYPE svg PUBLIC "-//W3C//DTD SVG 1.1//EN"
 "http://www.w3.org/Graphics/SVG/1.1/DTD/svg11.dtd">
<!-- Generated by graphviz version 2.40.1 (20161225.0304)
 -->
<!-- Title: mod_milstein_solver::get_milstein_iteration Pages: 1 -->
<svg width="671pt" height="56pt"
 viewBox="0.00 0.00 671.00 56.00" xmlns="http://www.w3.org/2000/svg" xmlns:xlink="http://www.w3.org/1999/xlink">
<g id="graph0" class="graph" transform="scale(1 1) rotate(0) translate(4 52)">
<title>mod_milstein_solver::get_milstein_iteration</title>
<!-- Node1 -->
<g id="Node000001" class="node">
<title>Node1</title>
<g id="a_Node000001"><a xlink:title="Computes a iteration of the Milstein method.">
<polygon fill="#999999" stroke="#666666" points="115,-30 0,-30 0,0 115,0 115,-30"/>
<text text-anchor="start" x="8" y="-18" font-family="Helvetica,sans-Serif" font-size="10.00" fill="#000000">mod_milstein_solver</text>
<text text-anchor="middle" x="57.5" y="-7" font-family="Helvetica,sans-Serif" font-size="10.00" fill="#000000">::get_milstein_iteration</text>
</a>
</g>
</g>
<!-- Node2 -->
<g id="Node000002" class="node">
<title>Node2</title>
<g id="a_Node000002"><a xlink:href="../../d8/dd5/namespacemod__milstein__solver.html#a638c4ea649a63896183e1176171e6419" target="_top" xlink:title="Simulate an increment of the related Browninar path.">
<polygon fill="#ffffff" stroke="#666666" points="279,-30 151,-30 151,0 279,0 279,-30"/>
<text text-anchor="start" x="159" y="-18" font-family="Helvetica,sans-Serif" font-size="10.00" fill="#000000">mod_milstein_solver</text>
<text text-anchor="middle" x="215" y="-7" font-family="Helvetica,sans-Serif" font-size="10.00" fill="#000000">::get_brownian_increment</text>
</a>
</g>
</g>
<!-- Node1&#45;&gt;Node2 -->
<g id="edge1_Node000001_Node000002" class="edge">
<title>Node1&#45;&gt;Node2</title>
<g id="a_edge1_Node000001_Node000002"><a xlink:title=" ">
<path fill="none" stroke="#63b8ff" d="M115.2529,-15C123.5823,-15 132.2498,-15 140.8441,-15"/>
<polygon fill="#63b8ff" stroke="#63b8ff" points="140.8749,-18.5001 150.8748,-15 140.8748,-11.5001 140.8749,-18.5001"/>
</a>
</g>
</g>
<!-- Node3 -->
<g id="Node000003" class="node">
<title>Node3</title>
<g id="a_Node000003"><a xlink:href="../../d1/dcc/namespacemod__random__number__generator.html#ab1f623a692b4cd170b49039e246afd57" target="_top" xlink:title="Implementation of the Box&#45;muller algorithm to genrate Gaussian random variables.">
<polygon fill="#ffffff" stroke="#666666" points="471,-30 315,-30 315,0 471,0 471,-30"/>
<text text-anchor="start" x="323" y="-18" font-family="Helvetica,sans-Serif" font-size="10.00" fill="#000000">mod_random_number_generator</text>
<text text-anchor="middle" x="393" y="-7" font-family="Helvetica,sans-Serif" font-size="10.00" fill="#000000">::boxmuller</text>
</a>
</g>
</g>
<!-- Node2&#45;&gt;Node3 -->
<g id="edge2_Node000002_Node000003" class="edge">
<title>Node2&#45;&gt;Node3</title>
<g id="a_edge2_Node000002_Node000003"><a xlink:title=" ">
<path fill="none" stroke="#63b8ff" d="M279.0106,-15C287.3922,-15 296.0956,-15 304.7889,-15"/>
<polygon fill="#63b8ff" stroke="#63b8ff" points="304.9696,-18.5001 314.9696,-15 304.9696,-11.5001 304.9696,-18.5001"/>
</a>
</g>
</g>
<!-- Node3&#45;&gt;Node3 -->
<g id="edge3_Node000003_Node000003" class="edge">
<title>Node3&#45;&gt;Node3</title>
<g id="a_edge3_Node000003_Node000003"><a xlink:title=" ">
<path fill="none" stroke="#63b8ff" d="M361.7109,-30.2754C354.7578,-39.4063 365.1875,-48 393,-48 409.5137,-48 419.8992,-44.9704 424.1567,-40.5975"/>
<polygon fill="#63b8ff" stroke="#63b8ff" points="427.6604,-40.3195 424.2891,-30.2754 420.661,-40.2296 427.6604,-40.3195"/>
</a>
</g>
</g>
<!-- Node4 -->
<g id="Node000004" class="node">
<title>Node4</title>
<g id="a_Node000004"><a xlink:href="../../d1/dcc/namespacemod__random__number__generator.html#a7190dd0789517074d019626c692cfcc5" target="_top" xlink:title="Returns a random variables with uniform distribution using the standar gfortran random number generat...">
<polygon fill="#ffffff" stroke="#666666" points="663,-30 507,-30 507,0 663,0 663,-30"/>
<text text-anchor="start" x="515" y="-18" font-family="Helvetica,sans-Serif" font-size="10.00" fill="#000000">mod_random_number_generator</text>
<text text-anchor="middle" x="585" y="-7" font-family="Helvetica,sans-Serif" font-size="10.00" fill="#000000">::unif</text>
</a>
</g>
</g>
<!-- Node3&#45;&gt;Node4 -->
<g id="edge4_Node000003_Node000004" class="edge">
<title>Node3&#45;&gt;Node4</title>
<g id="a_edge4_Node000003_Node000004"><a xlink:title=" ">
<path fill="none" stroke="#63b8ff" d="M471.0938,-15C479.6006,-15 488.3019,-15 496.9175,-15"/>
<polygon fill="#63b8ff" stroke="#63b8ff" points="496.9755,-18.5001 506.9755,-15 496.9754,-11.5001 496.9755,-18.5001"/>
</a>
</g>
</g>
</g>
</svg>
