<?xml version="1.0" encoding="UTF-8" standalone="no"?>
<!DOCTYPE svg PUBLIC "-//W3C//DTD SVG 1.1//EN"
 "http://www.w3.org/Graphics/SVG/1.1/DTD/svg11.dtd">
<!-- Generated by graphviz version 2.43.0 (0)
 -->
<!-- Title: mod_milstein_solver::get_brownian_increment Pages: 1 -->
<svg width="363pt" height="57pt"
 viewBox="0.00 0.00 363.00 57.00" xmlns="http://www.w3.org/2000/svg" xmlns:xlink="http://www.w3.org/1999/xlink">
<g id="graph0" class="graph" transform="scale(1 1) rotate(0) translate(4 53)">
<title>mod_milstein_solver::get_brownian_increment</title>
<polygon fill="white" stroke="transparent" points="-4,4 -4,-53 359,-53 359,4 -4,4"/>
<!-- Node1 -->
<g id="node1" class="node">
<title>Node1</title>
<g id="a_node1"><a xlink:title="Simulate an increment of the related Browninar path.">
<polygon fill="#bfbfbf" stroke="black" points="0,-0.5 0,-30.5 143,-30.5 143,-0.5 0,-0.5"/>
<text text-anchor="start" x="8" y="-18.5" font-family="Helvetica,sans-Serif" font-size="10.00">mod_milstein_solver</text>
<text text-anchor="middle" x="71.5" y="-7.5" font-family="Helvetica,sans-Serif" font-size="10.00">::get_brownian_increment</text>
</a>
</g>
</g>
<!-- Node2 -->
<g id="node2" class="node">
<title>Node2</title>
<g id="a_node2"><a xlink:href="../../d1/dcc/namespacemod__random__number__generator.html#aa3bb4b1a0f7f2d8f6ac1d2b6518f59d6" target="_top" xlink:title="Implementation of the Box&#45;muller algorithm to genrate Gaussian random variables.">
<polygon fill="white" stroke="black" points="179,-0.5 179,-30.5 355,-30.5 355,-0.5 179,-0.5"/>
<text text-anchor="start" x="187" y="-18.5" font-family="Helvetica,sans-Serif" font-size="10.00">mod_random_number_generator</text>
<text text-anchor="middle" x="267" y="-7.5" font-family="Helvetica,sans-Serif" font-size="10.00">::boxmuller</text>
</a>
</g>
</g>
<!-- Node1&#45;&gt;Node2 -->
<g id="edge1" class="edge">
<title>Node1&#45;&gt;Node2</title>
<path fill="none" stroke="midnightblue" d="M143.18,-15.5C151.48,-15.5 160.06,-15.5 168.65,-15.5"/>
<polygon fill="midnightblue" stroke="midnightblue" points="168.71,-19 178.71,-15.5 168.71,-12 168.71,-19"/>
</g>
<!-- Node2&#45;&gt;Node2 -->
<g id="edge2" class="edge">
<title>Node2&#45;&gt;Node2</title>
<path fill="none" stroke="midnightblue" d="M233.19,-30.66C225.04,-40.06 236.31,-49 267,-49 285.7,-49 297.19,-45.68 301.47,-40.96"/>
<polygon fill="midnightblue" stroke="midnightblue" points="304.94,-40.41 300.81,-30.66 297.96,-40.86 304.94,-40.41"/>
</g>
</g>
</svg>
