<?xml version="1.0" encoding="UTF-8" standalone="no"?>
<!DOCTYPE svg PUBLIC "-//W3C//DTD SVG 1.1//EN"
 "http://www.w3.org/Graphics/SVG/1.1/DTD/svg11.dtd">
<!-- Generated by graphviz version 2.43.0 (0)
 -->
<!-- Title: mod_milstein_solver::get_milstein_iteration Pages: 1 -->
<svg width="529pt" height="57pt"
 viewBox="0.00 0.00 529.00 57.00" xmlns="http://www.w3.org/2000/svg" xmlns:xlink="http://www.w3.org/1999/xlink">
<g id="graph0" class="graph" transform="scale(1 1) rotate(0) translate(4 53)">
<title>mod_milstein_solver::get_milstein_iteration</title>
<polygon fill="white" stroke="transparent" points="-4,4 -4,-53 525,-53 525,4 -4,4"/>
<!-- Node1 -->
<g id="node1" class="node">
<title>Node1</title>
<g id="a_node1"><a xlink:title="Computes a iteration of the Milstein method.">
<polygon fill="#bfbfbf" stroke="black" points="0,-0.5 0,-30.5 130,-30.5 130,-0.5 0,-0.5"/>
<text text-anchor="start" x="8" y="-18.5" font-family="Helvetica,sans-Serif" font-size="10.00">mod_milstein_solver</text>
<text text-anchor="middle" x="65" y="-7.5" font-family="Helvetica,sans-Serif" font-size="10.00">::get_milstein_iteration</text>
</a>
</g>
</g>
<!-- Node2 -->
<g id="node2" class="node">
<title>Node2</title>
<g id="a_node2"><a xlink:href="../../d8/dd5/namespacemod__milstein__solver.html#a16bfa06b499d32cad645bfc8b3be1734" target="_top" xlink:title="Simulate an increment of the related Browninar path.">
<polygon fill="white" stroke="black" points="166,-0.5 166,-30.5 309,-30.5 309,-0.5 166,-0.5"/>
<text text-anchor="start" x="174" y="-18.5" font-family="Helvetica,sans-Serif" font-size="10.00">mod_milstein_solver</text>
<text text-anchor="middle" x="237.5" y="-7.5" font-family="Helvetica,sans-Serif" font-size="10.00">::get_brownian_increment</text>
</a>
</g>
</g>
<!-- Node1&#45;&gt;Node2 -->
<g id="edge1" class="edge">
<title>Node1&#45;&gt;Node2</title>
<path fill="none" stroke="midnightblue" d="M130.46,-15.5C138.71,-15.5 147.23,-15.5 155.69,-15.5"/>
<polygon fill="midnightblue" stroke="midnightblue" points="155.96,-19 165.96,-15.5 155.96,-12 155.96,-19"/>
</g>
<!-- Node3 -->
<g id="node3" class="node">
<title>Node3</title>
<g id="a_node3"><a xlink:href="../../d1/dcc/namespacemod__random__number__generator.html#aa3bb4b1a0f7f2d8f6ac1d2b6518f59d6" target="_top" xlink:title="Implementation of the Box&#45;muller algorithm to genrate Gaussian random variables.">
<polygon fill="white" stroke="black" points="345,-0.5 345,-30.5 521,-30.5 521,-0.5 345,-0.5"/>
<text text-anchor="start" x="353" y="-18.5" font-family="Helvetica,sans-Serif" font-size="10.00">mod_random_number_generator</text>
<text text-anchor="middle" x="433" y="-7.5" font-family="Helvetica,sans-Serif" font-size="10.00">::boxmuller</text>
</a>
</g>
</g>
<!-- Node2&#45;&gt;Node3 -->
<g id="edge2" class="edge">
<title>Node2&#45;&gt;Node3</title>
<path fill="none" stroke="midnightblue" d="M309.18,-15.5C317.48,-15.5 326.06,-15.5 334.65,-15.5"/>
<polygon fill="midnightblue" stroke="midnightblue" points="334.71,-19 344.71,-15.5 334.71,-12 334.71,-19"/>
</g>
<!-- Node3&#45;&gt;Node3 -->
<g id="edge3" class="edge">
<title>Node3&#45;&gt;Node3</title>
<path fill="none" stroke="midnightblue" d="M399.19,-30.66C391.04,-40.06 402.31,-49 433,-49 451.7,-49 463.19,-45.68 467.47,-40.96"/>
<polygon fill="midnightblue" stroke="midnightblue" points="470.94,-40.41 466.81,-30.66 463.96,-40.86 470.94,-40.41"/>
</g>
</g>
</svg>
